<svg xmlns="http://www.w3.org/2000/svg" version="1.0"
  viewBox="0 0 305.000000 255.000000">
  <g transform="translate(0.000000,255.000000) scale(0.100000,-0.100000)"
  >
    <path
      d="M2135 2380 c-138 -72 -405 -308 -990 -874 -535 -518 -662 -626 -848 -726 -97 -53 -144 -52 -204 1 l-38 33 -3 -61 c-2 -34 4 -91 12 -127 67 -286 271 -324 565 -106 170 126 328 284 871 870 251 271 387 410 428 437 81 55 27 -88 -263 -707 -198 -422 -228 -506 -206 -579 23 -79 128 -109 207 -60 64 39 304 230 482 382 264 225 287 242 316 231 28 -11 18 -76 -43 -270 -71 -228 -85 -293 -71 -345 21 -77 98 -114 224 -107 88 5 164 35 219 86 36 35 34 47 -13 77 -23 14 -46 37 -52 50 -11 25 -11 28 107 515 24 102 47 221 50 265 6 70 4 84 -15 113 -25 41 -73 62 -140 62 -86 0 -156 -46 -386 -257 -316 -290 -454 -407 -514 -438 -37 -19 -40 -19 -40 5 0 33 49 122 234 424 396 645 467 789 453 922 -6 61 -23 97 -69 143 -75 77 -176 92 -273 41z" />
  </g>
</svg>